<svg xmlns="http://www.w3.org/2000/svg" xmlns:xlink="http://www.w3.org/1999/xlink" width="286.531" height="288" viewBox="0 0 286.531 288">
  <defs>
    <style>
      .cls-1 {
        fill-rule: evenodd;
        fill: url(#linear-gradient);
      }
    </style>
    <linearGradient id="linear-gradient" x1="598" y1="202" x2="884.531" y2="202" gradientUnits="userSpaceOnUse">
      <stop offset="0" stop-color="#2800ff"/>
      <stop offset="1" stop-color="#61caf2"/>
    </linearGradient>
  </defs>
  <path id="Gradient_Fill_1" data-name="Gradient Fill 1" class="cls-1" d="M743,58h5c1.3,2.418,1.8,2.833,2,7a21.512,21.512,0,0,1-7,1A11.454,11.454,0,0,1,743,58ZM847,159v6c2.708,1.267,5.275,2.723,7,5h1c1.191-6.206,3.36-8.151,11-8,3.1,2.541,5.492,2.646,7,7,1.907,2.673.705,6.993-1,9-3.034,3.069-6.3,3-11,2v9c-0.566.713-1.442,0.042-1,2h1c3.115,3.036,5.964,5.886,9,9a56.259,56.259,0,0,1-1,12l-4,3c-3.568,2.884-7.921,1.514-13,1q-0.5,3-1,6c6.16,0.852,7.245,4.076,11,7v-1c-1.049-1.549-1.031-4.085-1-7,1.834-1.285,1.712-1.968,4-3,1.838-1.238,5.7-1.089,9-1l5,6c0.392,9.638-2.351,11.479-12,11a16.137,16.137,0,0,0-5-4v1c2.774,3.437,1.494,7.049,1,12a51.024,51.024,0,0,0-7,6H846c-0.514,3.808-1.4,4.209-2,8,4.235,1.953,5.954,4.106,9,7v10l-6,5c-5.147-.026-7.163-1.065-11-2,0,16.032-8.7,11.577-17,15-1.992,1.937-4.808,7.5-4,9,3.132,2.4,5.443,1.733,7,6,1.5,1.624,1.552,2.023,2,5-2.343,2.365-4.636,4.656-7,7-7.394-1.424-11.23-4.7-11-14a38.784,38.784,0,0,1-9-1c-0.625,3.352-3.107,5.565-2,7,2.5,2.43,5.474,4.654,8,7,0.242,9.039-2.7,11.438-12,11-1.021-.8-0.274-0.355-2-1a24.935,24.935,0,0,0-4-5v-8H775c-3.019,10.5-12.975,8.727-23,7q-0.5,2.5-1,5a24.935,24.935,0,0,0-5,4c-5.9.077-8.791-.978-13-2-3.334-5.154-5.1-7.553-5-17a19.857,19.857,0,0,1-8-2c-0.46,5.1-1.767,7.6-6,9-7.652,6.239-16.045-3.041-20-7a64.077,64.077,0,0,1,0-10c-4.463-.566-6.654-2.346-10-4-1.131,5.175-3.08,5.962-6,9h-7c-2.867-2.665-5.487-2.716-7-7-1.337-1.992-1.1-6.507-1-10a12.205,12.205,0,0,0,4-4c-10.531,3.864-14.258-3.146-19-8q0.5-6,1-12c-5.025-.036-6.422-1.044-10-2-4.564-6.9-6.187-10.4-4-20-8.6-1-14.107-7.035-14-17a16.485,16.485,0,0,0,3-6c-6.213-.183-10.393-2.121-12-7-3.482-4.789.056-12.019,3-14,3.105-2.493,5.707-1.59,10-1q0.5-5,1-10c-4.974-1.313-5.931-4.03-9-7a56.259,56.259,0,0,1,1-12,24.935,24.935,0,0,0,5-4h9a32.775,32.775,0,0,1,3-10c-6.191-1.54-9.251-6.033-10-13a11.725,11.725,0,0,0,2-5c3.048-1.785,4.538-3.317,9-4,1.708,1.233,5.121,2.153,7,3-0.255-7.572,1.52-12.191,7-14,2.1-1.273,7.924-.686,10-2,1.955-2.114,3.206-5.82,4-9-4.739-1.129-8.137-3.918-9-9-0.7-1.288.368-3.251,1-6,3.415-2,4.94-2.988,11-3a48.893,48.893,0,0,0,6,6v8l8,1a25.766,25.766,0,0,0,2-5h1v-1c-6.633-1.491-9.669-5.189-10-13,3.88-4.852,3.6-7.19,13-7,1.359,1.261,1.768,1.365,4,2,1.51,3.033,2.543,3.538,3,8,0.877,1.295.894,2.467,1,5h6c1.135-2.326,2.138-3.316,3-6-12.389-1.105-12.631-19.834,3-19,2.557,2.388,4.6,2.162,6,6,1.791,2.226,2,4.8,2,9h9c1.465-2.962,3-4.449,4-8-13.239.313-14.013-15.616-1-16,1.734,1.833,3.53,2.808,5,5,2.707,3.506,1.087,5.682,0,10,7.8-.156,10.821,1.544,16,3,0.237-5.423,1.766-7.616,6-9,1.549-1.049,4.085-1.031,7-1l7,5c2.1,3.074.851,8.9,4,11,2.049,1.786,7.545,3.81,9,3,4.474-3.578,4.525-6.822,13-7,2.423,2.3,5.056,3.119,7,6,1.9,2.7,1.115,9.122,4,11l8,3c2.209,1.474,3.6,4.395,6,6v-1c-1.049-1.549-1.031-4.085-1-7,3.241-2.046,4.032-2.988,10-3,3.635,3.695,5.137,3.963,5,12-3.241,2.046-4.032,2.988-10,3a19.089,19.089,0,0,0-4-3v1c1.721,2.333,1.328,7.415,3,10,1.819,1.738,4.606,2.871,7,4,0.862-5.767,4.128-8.084,11-8,1.359,1.262,1.768,1.365,4,2,3.767,5.964,5.012,7.355,3,15-1.624.638-3.684,2.551-5,3-2.243.765-6.255-1.711-7-1v8a18.068,18.068,0,0,1,4,3c1.754-.631.971-0.193,2-1,3.632-4.5,3.771-7.736,12-8,4.528,4.217,8.858,5.088,10,13-3.9,4.87-3.724,8.063-13,8C848.927,159.248,849.054,159.4,847,159ZM776,68a30.433,30.433,0,0,1,7,1c1.113,2.476,1.688,3.233,2,7-2.919,1.838-2.9,2.739-8,3C773.411,73.924,772.515,73.565,776,68Zm35,14c2.076,0.372,1.924.242,3,1,1.322,1.737,1.727,1.607,1,3l-1,2c-1.754-.631-0.971-0.193-2-1C809.1,85.294,810.119,84.816,811,82ZM640,107h6c2.471,3.3,4.433,3.335,5,9-3.079,3.031-2.687,4.715-9,5-2.973-3.057-5.156-3.459-6-9A26.36,26.36,0,0,0,640,107Zm-18,16c3.245,0.828,1.528-.49,3,2h-3v-2Zm-10,27h6c2.23,3.335,3.688,3.195,4,9a24.935,24.935,0,0,0-5,4c-1.754-.631-0.971-0.193-2-1C607.788,159.975,608.857,154.79,612,150Zm-6,31,5,1c1.874,2.931,3.286,3.5,4,8-2.984,2.85-2.7,3.928-9,4-2.23-3.335-3.688-3.195-4-9,0.8-1.021.355-.274,1-2A10.925,10.925,0,0,0,606,181Zm269,5,5,1c2.23,3.335,3.688,3.195,4,9-3.086,1.947-3.43,2.887-9,3C870.715,192.923,870.9,192.076,875,186ZM599,218h4c0.631,1.754.193,0.971,1,2-0.631,1.754-.193.971-1,2-1.18.8-1.681,0.773-4,1-0.631-1.754-.193-0.971-1-2Q598.5,219.5,599,218Zm13,18c4.967,1.135,6.882,2.818,7,9-2.418,1.3-2.833,1.8-7,2a24.935,24.935,0,0,0-4-5,17.682,17.682,0,0,1,2-4C610.74,237.128,611.26,236.872,612,236Zm270,9c2.542,1.455,1.128-.217,2,3h-2v-3Zm-22,4c7.791,0.287,11.172,3.546,11,12-3.549,2.379-3.585,3.857-10,4-1.021-.8-0.274-0.355-2-1-2.381-3.674-3.885-4.441-4-11A24.935,24.935,0,0,0,860,249Zm-235,8h3c1.664,2.2,2.836,2.026,4,5,2.166,4.223-1.3,7.091-7,7-2.664-2.922-3.8-3.128-4-9A18.068,18.068,0,0,0,625,257Zm47,15c1.541,7.282-.844,9.322-4,14h8c1.021,0.8.274,0.355,2,1v-7c0.8-1.18.773-1.681,1-4Zm-34,8c3.555,0.7,4.72.819,6,4,0.8,1.18.773,1.681,1,4-2.418,1.3-2.833,1.8-7,2-1.838-2.919-2.739-2.9-3-8A10.925,10.925,0,0,0,638,280Zm215,7c2.076,0.372,1.924.242,3,1h1v3c-2.076-.372-1.924-0.242-3-1h-1v-3Zm-21,5,6,1c2.068,3.211,3.542,3.7,4,9-3.756,3.623-4.041,4.49-10,4C827.62,299.788,827.806,298.21,832,292ZM683,311a30.439,30.439,0,0,1,7,1c1.947,3.086,2.887,3.43,3,9-0.8,1.021-.355.274-1,2C682.047,328.06,676.185,318.181,683,311Zm32,11a38.784,38.784,0,0,1,9,1c2,3.415,2.988,4.94,3,11-3.086,1.947-3.43,2.887-9,3-0.771-.682-2.232-1.311-3-2C710.62,330.753,712.3,326.172,715,322Zm54,1h8c4.561,6.1,8.856,15.712-6,15-1.021-.8-0.274-0.355-2-1C765.671,331.648,765.808,328.349,769,323Zm-18,12,5,1c1.3,2.418,1.8,2.833,2,7a18.068,18.068,0,0,0-4,3c-2.506-1.137-3.754-1.426-5-4-0.877-1.3-.894-2.467-1-5A10.925,10.925,0,0,0,751,335Z" transform="translate(-598 -58)"/>
</svg>
